<?xml version="1.0" encoding="UTF-8" standalone="no"?>
<svg
   xmlns:dc="http://purl.org/dc/elements/1.1/"
   xmlns:cc="http://creativecommons.org/ns#"
   xmlns:rdf="http://www.w3.org/1999/02/22-rdf-syntax-ns#"
   xmlns:svg="http://www.w3.org/2000/svg"
   xmlns="http://www.w3.org/2000/svg"
   viewBox="0 0 1198.375 453.29999"
   height="453.29999"
   width="1198.375"
   xml:space="preserve"
   version="1.1"
   id="svg2"><metadata
     id="metadata8"><rdf:RDF><cc:Work
         rdf:about=""><dc:format>image/svg+xml</dc:format><dc:type
           rdf:resource="http://purl.org/dc/dcmitype/StillImage" /></cc:Work></rdf:RDF></metadata><defs
     id="defs6" /><g
     transform="matrix(1.25,0,0,-1.25,0,453.3)"
     id="g10"><g
       transform="scale(0.1,0.1)"
       id="g12"><path
         id="path14"
         style="fill:#ea1f29;fill-opacity:1;fill-rule:evenodd;stroke:none"
         d="m 3953.34,2963.16 c -293.25,415.57 -780.48,663.28 -1276.14,663.28 -495.43,0 -982.75,-247.71 -1275.57,-663.28 l -14.97,-21.3 369.31,0 3.94,4.3 c 251.65,259.61 579.78,396.72 917.29,396.72 337.67,0 665.79,-137.11 917.73,-396.72 l 4.09,-4.3 369.17,0 -14.85,21.3 0,0" /><path
         id="path16"
         style="fill:#ffffff;fill-opacity:1;fill-rule:nonzero;stroke:none"
         d="m 1197.88,1599.72 -6.91,-6.95 C 1077.33,1477.3 946.102,1415.98 810.871,1415.98 c -282.457,0 -487.32,211.82 -487.32,504.11 0,291.58 204.863,503.68 487.32,503.68 135.231,0 266.459,-61.39 380.099,-177.17 l 6.91,-7.29 181.62,219.83 -4.97,5.96 c -150.89,178.53 -332.11,265.22 -554.975,265.22 -223.36,0 -427.735,-75.28 -574.992,-211.02 C 84.5273,2372.48 0,2165.35 0,1920.09 0,1674.85 84.5273,1467.2 244.563,1320.15 391.82,1183.92 596.195,1109.1 819.555,1109.1 c 222.865,0 404.085,86.67 554.975,265.05 l 4.97,5.66 -181.62,219.91 0,0" /><path
         id="path18"
         style="fill:#ffffff;fill-opacity:1;fill-rule:nonzero;stroke:none"
         d="m 1563.01,2704.92 0,-1565.99 320.76,0 0,1565.99 -320.76,0 0,0" /><path
         id="path20"
         style="fill:#ffffff;fill-opacity:1;fill-rule:nonzero;stroke:none"
         d="m 3140.31,1479.57 c -85.55,-52.2 -165.22,-78.48 -236.74,-78.48 -103.57,0 -150.53,54.52 -150.53,176.58 l 0,830.8 326.78,0 0,295.03 -326.78,0 0,487.38 -314.47,-168.31 0,-319.07 -271.05,0 0,-295.03 271.05,0 0,-883.92 c 0,-240.73 142.65,-405.19 355.68,-409.73 144.64,-2.78 231.75,40.45 284.78,71.98 l 3.14,2.27 77.16,302.04 -19.02,-11.54 0,0" /><path
         id="path22"
         style="fill:#ffffff;fill-opacity:1;fill-rule:nonzero;stroke:none"
         d="m 3406.12,2704.92 0,-1565.99 321.11,0 0,1565.99 -321.11,0 0,0" /><path
         id="path24"
         style="fill:#e0f5f8;fill-opacity:1;fill-rule:nonzero;stroke:none"
         d="m 6309.51,3423.95 c 150.45,0 272.72,-122.56 272.72,-273.01 0,-150.58 -122.27,-272.95 -272.72,-272.95 -150.66,0 -273.23,122.37 -273.23,272.95 0,150.45 122.57,273.01 273.23,273.01 m 165.7,-2285.02 c 23.29,0 42.2,20.36 42.2,45.45 l 0,1478.29 c 0,24.08 -18.25,42.25 -42.2,42.25 l -331.72,0 c -24.93,0 -45.37,-19.07 -45.37,-42.25 l 0,-1478.29 c 0,-24.27 21.31,-45.45 45.37,-45.45 l 331.72,0 0,0" /><path
         id="path26"
         style="fill:#e0f5f8;fill-opacity:1;fill-rule:nonzero;stroke:none"
         d="m 7166.94,1181.24 c 0,-24.12 -18.18,-42.31 -42.11,-42.31 l -331.71,0 c -25.09,0 -45.4,19.07 -45.4,42.31 l 0,2094.31 c 0,23.3 20.31,42.28 45.4,42.28 l 331.71,0 c 23.93,0 42.11,-18.13 42.11,-42.28 l 0,-2094.31" /><path
         id="path28"
         style="fill:#e0f5f8;fill-opacity:1;fill-rule:nonzero;stroke:none"
         d="m 7665.37,1138.93 c -41.52,0 -62.34,1.29 -80.64,29.84 l -453.36,735.45 467.97,764.5 c 19.44,30.22 45.43,36.2 83.94,36.2 l 309.58,0 c 31.16,0 36.09,-17.31 36.09,-26.85 0,-14.43 -8.39,-29.11 -22.71,-51.65 l -458.45,-683.5 493.35,-732.78 c 16.2,-23.65 22.11,-34.47 22.11,-44.46 0,-9.28 -2.06,-26.75 -36.28,-26.75 l -361.6,0 0,0" /><path
         id="path30"
         style="fill:#e0f5f8;fill-opacity:1;fill-rule:nonzero;stroke:none"
         d="m 8385.8,2097.75 699.07,0 c -29.79,198.73 -187.44,308.12 -349.31,308.12 -162.4,0 -320.1,-109.39 -349.76,-308.12 l 0,0 z m -411.27,-188.82 c 0,457.32 313.27,821.86 753.09,821.86 453.91,0 712.31,-389.22 712.31,-763.19 l 0,-77.24 c 0,-53.3 -26.2,-60.75 -54.53,-60.75 l -1001.84,0 c 13.59,-209.74 162.27,-359.06 358.44,-359.06 126.31,0 238.95,66.26 326.75,177.71 17.57,20.56 36.43,46.73 60.07,46.73 9.34,0 24.64,-2.73 37.14,-11.13 l 214.82,-136.69 c 20.92,-12.11 33.66,-25.92 33.66,-42.2 0,-9.74 -5.04,-21.64 -12.74,-37.05 -121.98,-230.93 -380.94,-359.13 -665.72,-359.13 -468.26,0 -761.45,355.27 -761.45,800.14" /><path
         id="path32"
         style="fill:#e0f5f8;fill-opacity:1;fill-rule:nonzero;stroke:none"
         d="m 5165.24,2730.79 c -172.16,0 -320.97,-54.65 -404.28,-141.85 l 0,686.61 c 0,25.28 -21.77,42.28 -42.29,42.28 l -328.52,0 c -24.19,0 -42.26,-18.13 -42.26,-42.28 l 0,-2094.31 c 0,-24.12 18.07,-42.31 42.26,-42.31 l 328.28,0 c 24.22,0 42.29,18.19 42.29,42.31 l 0.24,59.51 c 88.06,-97.13 264.89,-131.96 401.09,-131.96 407.11,0 764.2,311.99 764.2,815.52 0,503.71 -357.09,806.48 -761.01,806.48 l 0,0 z m -37.17,-1249.37 c -207.93,0 -377.03,195.02 -377.03,434.6 0,239.8 169.1,434.59 377.03,434.59 207.99,0 377.01,-194.79 377.01,-434.59 0,-239.58 -169.02,-434.6 -377.01,-434.6 l 0,0" /><path
         id="path34"
         style="fill:#e0f5f8;fill-opacity:1;fill-rule:nonzero;stroke:none"
         d="m 9587.02,1205.25 c 0,-41.69 -32.68,-74.35 -75.29,-74.35 -42.05,0 -75.71,32.66 -75.71,74.35 0,40.75 33.66,73.47 75.71,73.47 42.61,0 75.29,-32.72 75.29,-73.47 l 0,0 z m -132.16,0 c 0,-32.77 24.24,-58.69 57.35,-58.69 32.24,0 55.98,25.92 55.98,58.22 0,32.67 -23.74,59.1 -56.46,59.1 -32.63,0 -56.87,-26.43 -56.87,-58.63 l 0,0 z m 45.27,-38.6 -17.04,0 0,73.48 c 6.7,1.39 16.14,2.27 28.25,2.27 13.85,0 20.1,-2.27 25.51,-5.36 4.04,-3.14 7.17,-8.97 7.17,-16.13 0,-8.09 -6.3,-14.38 -15.24,-17.05 l 0,-0.88 c 7.15,-2.68 11.21,-8.09 13.42,-17.88 2.25,-11.23 3.57,-15.71 5.44,-18.45 l -18.39,0 c -2.24,2.74 -3.59,9.49 -5.86,17.99 -1.29,8.04 -5.8,11.64 -15.19,11.64 l -8.07,0 0,-29.63 z m 0.42,41.74 8.02,0 c 9.47,0 17.09,3.04 17.09,10.72 0,6.75 -4.88,11.23 -15.64,11.23 -4.56,0 -7.65,-0.51 -9.47,-0.88 l 0,-21.07" /><path
         id="path36"
         style="fill:#00a880;fill-opacity:1;fill-rule:nonzero;stroke:none"
         d="m 4538.3,473.172 c -44.05,0 -88.05,-14.801 -114.06,-57.141 -22.52,35.481 -62.39,57.141 -110.92,57.141 -38.12,0 -74.85,-12.742 -98.76,-48.172 l 0,39.25 -88.04,0 0,-333.43 90.46,0 0,182.68 c 0,50.242 32.21,75.352 71.05,75.352 41.26,0 65.52,-26.461 65.52,-74.633 l 0,-183.399 90.47,0 0,182.68 c 0,50.242 32.25,75.352 71.04,75.352 40.91,0 65.53,-26.461 65.53,-74.633 l 0,-183.399 90.11,0 0,212.282 c 0,77.418 -53.38,130.07 -132.4,130.07" /><path
         id="path38"
         style="fill:#00a880;fill-opacity:1;fill-rule:nonzero;stroke:none"
         d="m 5193.93,255.371 c 0,-86.379 42.65,-133.16 125.85,-133.16 47.81,0 81.76,15.16 111.23,35.121 l -33.28,70.188 c -18.35,-11.028 -41.58,-21.711 -63.06,-21.711 -28.08,0 -50.28,15.16 -50.28,56.781 l 0,121.82 121.68,0 0,79.832 -121.68,0 0,99.078 -90.46,0 0,-307.949" /><path
         id="path40"
         style="fill:#00a880;fill-opacity:1;fill-rule:nonzero;stroke:none"
         d="m 5498.89,130.789 90.4609,0 0,333.422 -90.4609,0 0,-333.422 z" /><path
         id="path42"
         style="fill:#00a880;fill-opacity:1;fill-rule:nonzero;stroke:none"
         d="m 6016.27,464.23 -95.31,0 -87.73,-238.789 -87.01,238.789 -98.4,0 132.76,-333.421 104.32,0 131.37,333.421" /><path
         id="path44"
         style="fill:#00a880;fill-opacity:1;fill-rule:nonzero;stroke:none"
         d="m 6274.77,233.012 c -20.46,-23.41 -49.92,-38.532 -79.7,-38.532 -31.94,0 -46.11,18.571 -46.11,38.168 0,19.293 15.56,38.571 58.57,38.571 l 67.24,0 0,-38.207 z m 89.07,-102.223 0,196.5 c 0,96.691 -60.64,145.891 -155.99,145.891 -54.76,0 -101.18,-15.469 -137.24,-41.981 l 35.34,-68.48 c 23.23,16.191 54.09,31.301 91.85,31.301 47.14,0 71.09,-22.329 74.9,-62.25 l -78.35,0 c -86.29,0 -139.35,-38.891 -139.35,-102.528 0,-63.332 44.36,-107.012 118.23,-107.012 45.74,0 79.34,18.211 102.93,42.29 l 0,-33.731 87.68,0" /><path
         id="path46"
         style="fill:#00a880;fill-opacity:1;fill-rule:nonzero;stroke:none"
         d="m 6975.5,329 -148.68,0 c 7.94,41.309 32.92,66.738 75.53,66.738 38.84,0 64.86,-24.078 73.15,-66.738 m 90.83,-30.941 c -0.36,103.871 -66.56,175.089 -163.26,175.089 -100.51,0 -169.85,-71.527 -169.85,-176.476 0,-104.953 71.4,-174.473 174.33,-174.473 56.52,0 105.05,15.832 143.17,50.59 l -53.01,57.813 c -24.27,-20.321 -55.84,-31.981 -84.95,-31.981 -42.61,0 -76.61,20.949 -86.3,69.16 l 238.12,0 c 1.03,7.539 1.75,19.918 1.75,30.278" /><path
         id="path48"
         style="fill:#00a880;fill-opacity:1;fill-rule:nonzero;stroke:none"
         d="m 6453.19,255.371 c 0,-86.379 42.66,-133.16 125.85,-133.16 47.81,0 81.77,15.16 111.23,35.121 l -33.28,70.188 c -18.34,-11.028 -41.57,-21.711 -63.06,-21.711 -28.07,0 -50.27,15.16 -50.27,56.781 l 0,121.82 121.68,0 0,79.832 -121.68,0 0,99.078 -90.47,0 0,-307.949" /><path
         id="path50"
         style="fill:#00a880;fill-opacity:1;fill-rule:nonzero;stroke:none"
         d="m 4932.14,479.93 c -0.05,0 -0.09,0 -0.09,0 l -0.05,-88 c 0,0 0.09,0 0.14,0 52.38,0 94.9,-42.16 94.9,-94.188 0,-29.871 -14.08,-56.512 -35.97,-73.781 l 0,-51.441 53.01,-19.149 c 43.51,33.32 71.58,85.621 71.58,144.371 0,100.598 -82.16,182.188 -183.52,182.188" /><path
         id="path52"
         style="fill:#00a880;fill-opacity:1;fill-rule:nonzero;stroke:none"
         d="m 4837.25,297.762 c 0,29.82 13.99,56.367 35.79,73.636 l 0,51.891 -52.61,19.02 c -43.64,-33.317 -71.81,-85.668 -71.81,-144.547 0,-100.61 82.17,-182.192 183.53,-182.192 l 0,88 c -52.43,0 -94.9,42.16 -94.9,94.192" /><path
         id="path54"
         style="fill:#d3d2d2;fill-opacity:1;fill-rule:nonzero;stroke:none"
         d="m 272.844,389.73 c -12.375,0 -23.828,-2.191 -34.406,-6.57 -10.555,-4.379 -19.708,-10.551 -27.461,-18.519 -7.754,-7.981 -13.821,-17.481 -18.223,-28.52 -4.379,-10.992 -6.57,-23.121 -6.57,-36.402 0,-13.27 2.191,-25.399 6.57,-36.387 4.402,-11.043 10.469,-20.5 18.223,-28.523 7.753,-7.969 16.906,-14.137 27.461,-18.52 10.578,-4.379 22.031,-6.57 34.406,-6.57 12.351,0 23.871,2.191 34.558,6.57 10.664,4.383 19.883,10.551 27.637,18.52 7.75,8.023 13.82,17.48 18.199,28.523 4.379,10.988 6.571,23.117 6.571,36.387 0,13.281 -2.192,25.41 -6.571,36.402 -4.379,11.039 -10.449,20.539 -18.199,28.52 -7.754,7.968 -16.973,14.14 -27.637,18.519 -10.687,4.379 -22.207,6.57 -34.558,6.57 z m 0,81.95 c 25.383,0 48.922,-4.328 70.625,-13.008 21.683,-8.621 40.386,-20.672 56.133,-36.043 15.722,-15.418 28.031,-33.598 36.921,-54.617 8.868,-21.032 13.317,-43.801 13.317,-68.293 0,-24.699 -4.449,-47.52 -13.317,-68.41 -8.89,-20.938 -21.199,-39.071 -36.921,-54.438 -15.747,-15.422 -34.45,-27.473 -56.133,-36.09 -21.703,-8.679 -45.242,-12.972 -70.625,-12.972 -25.406,0 -48.903,4.293 -70.477,12.972 -21.57,8.617 -40.164,20.668 -55.801,36.09 -15.613,15.367 -27.855,33.5 -36.746,54.438 -8.871,20.89 -13.3161,43.711 -13.3161,68.41 0,24.492 4.4451,47.261 13.3161,68.293 8.891,21.019 21.133,39.199 36.746,54.617 15.637,15.371 34.231,27.422 55.801,36.043 21.574,8.68 45.071,13.008 70.477,13.008" /><path
         id="path56"
         style="fill:#d3d2d2;fill-opacity:1;fill-rule:nonzero;stroke:none"
         d="m 688.852,389.73 c -12.59,0 -24,-2.23 -34.227,-6.738 -10.23,-4.472 -19.055,-10.781 -26.457,-18.883 -7.426,-8.058 -13.16,-17.648 -17.191,-28.648 -4.051,-10.992 -6.086,-22.902 -6.086,-35.742 0,-12.789 2.035,-24.699 6.086,-35.739 4.031,-10.988 9.765,-20.539 17.191,-28.64 7.402,-8.102 16.227,-14.371 26.457,-18.879 10.227,-4.512 21.637,-6.742 34.227,-6.742 13.031,0 24.703,2.363 35.062,7.09 10.336,4.691 19.164,11.132 26.457,19.191 7.313,8.102 12.922,17.602 16.863,28.512 3.918,10.91 5.891,22.64 5.891,35.207 0,12.363 -1.973,24.051 -5.891,35.09 -3.941,10.992 -9.55,20.543 -16.863,28.64 -7.293,8.11 -16.121,14.5 -26.457,19.231 -10.359,4.691 -22.031,7.05 -35.062,7.05 z m 16.183,81.95 c 22.473,0 43.363,-4.379 62.699,-13.141 19.317,-8.801 36.071,-20.797 50.243,-36.09 14.144,-15.277 25.269,-33.418 33.375,-54.437 8.078,-21.032 12.132,-43.801 12.132,-68.293 0,-24.477 -3.988,-47.258 -11.98,-68.278 -7.973,-20.98 -19.031,-39.16 -33.199,-54.441 -14.149,-15.289 -30.903,-27.289 -50.239,-36.051 -19.316,-8.758 -40.23,-13.14 -62.699,-13.14 -22.031,0 -40.844,3.851 -56.48,11.613 -15.617,7.75 -28.821,18.039 -39.594,30.828 l 0,-168.89062 -87.668,0 0,461.56262 85.98,0 0,-36.09 c 10.774,13.488 24.09,24.309 39.946,32.539 15.832,8.188 34.996,12.309 57.484,12.309" /><path
         id="path58"
         style="fill:#d3d2d2;fill-opacity:1;fill-rule:nonzero;stroke:none"
         d="m 1079.59,395.82 c -20.91,0 -37.43,-5.781 -49.56,-17.39 -12.13,-11.559 -20.12,-27.59 -23.94,-48 l 144.63,0 c -4.05,21.109 -12.13,37.269 -24.26,48.531 -12.16,11.25 -27.77,16.859 -46.87,16.859 z m 0.68,75.86 c 23.59,0 45.11,-4.16 64.56,-12.481 19.43,-8.32 36.11,-20.019 50.06,-35.078 13.93,-15.031 24.77,-33.16 32.52,-54.269 7.76,-21.11 11.63,-44.372 11.63,-69.782 0,-5.16 -0.15,-10.461 -0.5,-15.851 -0.33,-5.387 -0.72,-9.989 -1.18,-13.84 l -231.62,0 c 2.26,-11.918 5.96,-22.078 11.13,-30.488 5.17,-8.45 11.41,-15.461 18.72,-21.059 7.3,-5.652 15.55,-9.73 24.77,-12.312 9.22,-2.59 18.99,-3.899 29.35,-3.899 14.15,0 28.47,2.719 42.97,8.098 14.49,5.39 27.7,13.14 39.61,23.261 l 51.6,-56.628 c -18.66,-17.082 -39.62,-29.61 -62.88,-37.582 -23.28,-7.969 -48.72,-11.961 -76.36,-11.961 -24.94,0 -47.83,4.07 -68.61,12.312 -20.786,8.188 -38.657,19.75 -53.614,34.688 -14.938,14.98 -26.563,32.933 -34.887,53.961 -8.32,21.019 -12.48,44.32 -12.48,69.949 0,25.621 4.05,49.051 12.152,70.301 8.082,21.242 19.383,39.421 33.879,54.609 14.5,15.16 31.844,26.98 52.08,35.391 20.23,8.41 42.59,12.66 67.1,12.66" /><path
         id="path60"
         style="fill:#d3d2d2;fill-opacity:1;fill-rule:nonzero;stroke:none"
         d="m 1488.18,471.68 c 9.46,0 17.93,-0.61 25.47,-1.879 7.51,-1.231 14.32,-2.981 20.38,-5.211 l -13.14,-87.34 c -7.2,3.148 -15.63,5.691 -25.29,7.621 -9.66,1.879 -18.99,2.848 -27.99,2.848 -10.09,0 -19.38,-1.578 -27.81,-4.727 -8.41,-3.16 -15.66,-7.762 -21.75,-13.801 -6.06,-6.089 -10.77,-13.711 -14.14,-22.949 -3.38,-9.203 -5.06,-19.89 -5.06,-32.023 l 0,-178 -88,0 0,326.703 85.3,0 0,-35.742 c 10.34,15.511 23.2,26.812 38.59,33.859 15.4,7.09 33.22,10.641 53.44,10.641" /><path
         id="path62"
         style="fill:#d3d2d2;fill-opacity:1;fill-rule:nonzero;stroke:none"
         d="m 1736.98,389.73 c -12.81,0 -24.44,-2.359 -34.89,-7.05 -10.44,-4.731 -19.33,-11.121 -26.63,-19.231 -7.31,-8.097 -12.92,-17.648 -16.86,-28.64 -3.94,-11.039 -5.89,-22.727 -5.89,-35.09 0,-12.567 1.95,-24.297 5.89,-35.207 3.94,-10.91 9.55,-20.41 16.86,-28.512 7.3,-8.059 16.19,-14.5 26.63,-19.191 10.45,-4.727 22.08,-7.09 34.89,-7.09 12.59,0 24.05,2.23 34.41,6.742 10.31,4.508 19.2,10.777 26.63,18.879 7.4,8.101 13.14,17.652 17.19,28.64 4.05,11.04 6.06,22.95 6.06,35.739 0,12.84 -2.01,24.75 -6.06,35.742 -4.05,11 -9.79,20.59 -17.19,28.648 -7.43,8.102 -16.32,14.411 -26.63,18.883 -10.36,4.508 -21.82,6.738 -34.41,6.738 z m 167.56,-253.511 -85.96,0 0,36.09 c -10.8,-13.27 -24.18,-24 -40.12,-32.188 -15.97,-8.242 -35.19,-12.312 -57.66,-12.312 -22.47,0 -43.37,4.382 -62.7,13.14 -19.34,8.762 -36.07,20.762 -50.24,36.051 -14.15,15.281 -25.23,33.461 -33.2,54.441 -7.99,21.02 -11.98,43.801 -11.98,68.278 0,24.492 3.99,47.261 11.98,68.293 7.97,21.019 19.05,39.16 33.2,54.437 14.17,15.293 30.9,27.289 50.24,36.09 19.33,8.762 40.23,13.141 62.7,13.141 22.47,0 41.69,-4.121 57.66,-12.309 15.94,-8.23 29.32,-19.051 40.12,-32.539 l 0,36.09 85.96,0 0,-326.703" /><path
         id="path64"
         style="fill:#d3d2d2;fill-opacity:1;fill-rule:nonzero;stroke:none"
         d="m 2233.91,384.699 -118.32,0 0,-119.359 c 0,-10.121 1.29,-18.699 3.87,-25.801 2.59,-7.047 6.07,-12.789 10.45,-17.168 4.38,-4.379 9.55,-7.621 15.5,-9.629 5.96,-2.023 12.31,-3.023 19.06,-3.023 10.55,0 21.17,2.191 31.86,6.57 10.67,4.383 20.5,9.281 29.5,14.672 l 32.37,-68.77 c -14.39,-9.902 -30.25,-18.089 -47.55,-24.609 -17.3,-6.531 -37.53,-9.773 -60.68,-9.773 -40.69,0 -71.24,11.132 -91.7,33.382 -20.45,22.25 -30.68,54.61 -30.68,97.059 l 0,126.449 -63.05,0 0,78.223 63.05,0 0,97.058 88,0 0,-97.058 118.32,0 0,-78.223" /><path
         id="path66"
         style="fill:#d3d2d2;fill-opacity:1;fill-rule:nonzero;stroke:none"
         d="m 2451.73,395.82 c -20.92,0 -37.43,-5.781 -49.56,-17.39 -12.14,-11.559 -20.13,-27.59 -23.94,-48 l 144.63,0 c -4.05,21.109 -12.14,37.269 -24.27,48.531 -12.15,11.25 -27.77,16.859 -46.86,16.859 z m 0.68,75.86 c 23.58,0 45.11,-4.16 64.56,-12.481 19.42,-8.32 36.11,-20.019 50.06,-35.078 13.93,-15.031 24.77,-33.16 32.52,-54.269 7.75,-21.11 11.63,-44.372 11.63,-69.782 0,-5.16 -0.15,-10.461 -0.5,-15.851 -0.33,-5.387 -0.73,-9.989 -1.19,-13.84 l -231.61,0 c 2.26,-11.918 5.96,-22.078 11.13,-30.488 5.16,-8.45 11.41,-15.461 18.72,-21.059 7.29,-5.652 15.55,-9.73 24.77,-12.312 9.22,-2.59 18.99,-3.899 29.34,-3.899 14.15,0 28.47,2.719 42.97,8.098 14.5,5.39 27.71,13.14 39.62,23.261 l 51.6,-56.628 c -18.66,-17.082 -39.62,-29.61 -62.88,-37.582 -23.28,-7.969 -48.73,-11.961 -76.36,-11.961 -24.95,0 -47.83,4.07 -68.62,12.312 -20.78,8.188 -38.65,19.75 -53.61,34.688 -14.93,14.98 -26.56,32.933 -34.88,53.961 -8.33,21.019 -12.49,44.32 -12.49,69.949 0,25.621 4.05,49.051 12.16,70.301 8.08,21.242 19.38,39.421 33.88,54.609 14.49,15.16 31.84,26.98 52.07,35.391 20.24,8.41 42.6,12.66 67.11,12.66" /><path
         id="path68"
         style="fill:#d3d2d2;fill-opacity:1;fill-rule:nonzero;stroke:none"
         d="m 2837.06,389.73 c -12.82,0 -24.45,-2.359 -34.89,-7.05 -10.45,-4.731 -19.34,-11.121 -26.63,-19.231 -7.32,-8.097 -12.92,-17.648 -16.86,-28.64 -3.95,-11.039 -5.9,-22.727 -5.9,-35.09 0,-12.567 1.95,-24.297 5.9,-35.207 3.94,-10.91 9.54,-20.41 16.86,-28.512 7.29,-8.059 16.18,-14.5 26.63,-19.191 10.44,-4.727 22.07,-7.09 34.89,-7.09 12.59,0 24.04,2.23 34.4,6.742 10.31,4.508 19.21,10.777 26.63,18.879 7.4,8.101 13.14,17.652 17.19,28.64 4.05,11.04 6.07,22.95 6.07,35.739 0,12.84 -2.02,24.75 -6.07,35.742 -4.05,11 -9.79,20.59 -17.19,28.648 -7.42,8.102 -16.32,14.411 -26.63,18.883 -10.36,4.508 -21.81,6.738 -34.4,6.738 z m -16.19,81.95 c 22.03,0 40.84,-3.938 56.48,-11.821 15.62,-7.839 28.82,-18.179 39.62,-31.007 l 0,192.847 87.64,0 0,-485.48 -85.96,0 0,36.09 c -10.79,-13.27 -24.17,-24 -40.12,-32.188 -15.96,-8.242 -35.19,-12.312 -57.66,-12.312 -22.47,0 -43.36,4.382 -62.7,13.14 -19.34,8.762 -36.07,20.762 -50.24,36.051 -14.14,15.281 -25.23,33.461 -33.2,54.441 -7.99,21.02 -11.98,43.801 -11.98,68.278 0,24.492 3.99,47.261 11.98,68.293 7.97,21.019 19.06,39.16 33.2,54.437 14.17,15.293 30.9,27.289 50.24,36.09 19.34,8.762 40.23,13.141 62.7,13.141" /><path
         id="path70"
         style="fill:#d3d2d2;fill-opacity:1;fill-rule:nonzero;stroke:none"
         d="m 3431.09,389.73 c -12.59,0 -24,-2.23 -34.23,-6.738 -10.23,-4.472 -19.05,-10.781 -26.46,-18.883 -7.42,-8.058 -13.16,-17.648 -17.19,-28.648 -4.05,-10.992 -6.09,-22.902 -6.09,-35.742 0,-12.789 2.04,-24.699 6.09,-35.739 4.03,-10.988 9.77,-20.539 17.19,-28.64 7.41,-8.102 16.23,-14.371 26.46,-18.879 10.23,-4.512 21.64,-6.742 34.23,-6.742 13.03,0 24.7,2.363 35.06,7.09 10.34,4.691 19.16,11.132 26.46,19.191 7.31,8.102 12.92,17.602 16.86,28.512 3.92,10.91 5.89,22.64 5.89,35.207 0,12.363 -1.97,24.051 -5.89,35.09 -3.94,10.992 -9.55,20.543 -16.86,28.64 -7.3,8.11 -16.12,14.5 -26.46,19.231 -10.36,4.691 -22.03,7.05 -35.06,7.05 z m 16.18,81.95 c 22.47,0 43.36,-4.379 62.7,-13.141 19.32,-8.801 36.07,-20.797 50.24,-36.09 14.15,-15.277 25.27,-33.418 33.38,-54.437 8.08,-21.032 12.13,-43.801 12.13,-68.293 0,-24.477 -3.99,-47.258 -11.98,-68.278 -7.97,-20.98 -19.03,-39.16 -33.2,-54.441 -14.15,-15.289 -30.9,-27.289 -50.24,-36.051 -19.31,-8.758 -40.23,-13.14 -62.7,-13.14 -22.71,0 -41.98,4.07 -57.81,12.312 -15.86,8.188 -29.17,18.918 -39.95,32.188 l 0,-36.09 -85.98,0 0,485.48 87.67,0 0,-192.847 c 10.77,12.828 23.93,23.168 39.44,31.007 15.5,7.883 34.27,11.821 56.3,11.821" /><path
         id="path72"
         style="fill:#d3d2d2;fill-opacity:1;fill-rule:nonzero;stroke:none"
         d="m 3741.56,0 -96.42,0 114.29,205.691 -140.92,257.231 99.8,0 89.68,-167.93 86.98,167.93 96.41,0 L 3741.56,0" /></g></g></svg>